# xmcd
# 
# Track frame offsets:
#     150
#     11547
#     23309
#     35012
#     49234
#     60270
#     73815
#     85812
#     96788
#     110009
#     125821
#     141727
#     155810
#     170151
#     182796
#     198796
#     210409
#     224422
#     237820
#     251041
#     264162
#     276771
#     293411
#     308168
# 
# Disc length: 4319
# 
# Revision: 0
# Processed by: cddbd v1.5.2PL0 Copyright (c) Steve Scherf et al.
# Submitted via: fre:ac v1.0.17
# 
DISCID=6110dd18
DTITLE=N‰‰svillen Veljekset - 1984-98
DYEAR=0
DGENRE=Country
TTITLE0=Vanha Rakkauslaulu
TTITLE1=Jos Kaiken Alkaa Voisin Uudelleen
TTITLE2=Kun Pohjoisesta Tuulee
TTITLE3=Kettusen Veljekset
TTITLE4=Koivukulissien Sankarit
TTITLE5=Tuhannen Unelman J‰lkeen
TTITLE6=Kilometri Maaliin
TTITLE7=Mutta Muista
TTITLE8=J‰‰ Toivo Auringoksi Meille
TTITLE9=Miss‰ Olet Maalaisidylli
TTITLE10=N‰‰svillen Blues
TTITLE11=Taksin Taustapeili
TTITLE12=Ruutupaita ja Mandoliini
TTITLE13=Syyt‰ Syd‰nt‰si
TTITLE14=Sain Hyv‰n Tunteen
TTITLE15=Rahattoman Miehen El‰m‰
TTITLE16=Oregonin Tie
TTITLE17=Mustanaamio Palaa Kotiin
TTITLE18=Teksasin Kuu
TTITLE19=Kantrin Kaipuu
TTITLE20=Viel‰ Yksi Laulu
TTITLE21=Ballaadi Seilin Saaresta
TTITLE22=Viimeinen L‰tt‰hattu Lieksaan
TTITLE23=Oma Maa
EXTD=
EXTT0=
EXTT1=
EXTT2=
EXTT3=
EXTT4=
EXTT5=
EXTT6=
EXTT7=
EXTT8=
EXTT9=
EXTT10=
EXTT11=
EXTT12=
EXTT13=
EXTT14=
EXTT15=
EXTT16=
EXTT17=
EXTT18=
EXTT19=
EXTT20=
EXTT21=
EXTT22=
EXTT23=
PLAYORDER=
